<svg xmlns="http://www.w3.org/2000/svg" viewBox="0 0 1440 320">
  <path fill="rgba(247, 145, 66, 1)" fill-opacity="0.3" d="M0,192L24,165.3C48,139,96,85,144,80C192,75,240,117,288,122.7C336,128,384,96,432,117.3C480,139,528,213,576,208C624,203,672,117,720,122.7C768,128,816,224,864,245.3C912,267,960,213,1008,165.3C1056,117,1104,75,1152,85.3C1200,96,1248,160,1296,176C1344,192,1392,160,1416,144L1440,128L1440,320L1416,320C1392,320,1344,320,1296,320C1248,320,1200,320,1152,320C1104,320,1056,320,1008,320C960,320,912,320,864,320C816,320,768,320,720,320C672,320,624,320,576,320C528,320,480,320,432,320C384,320,336,320,288,320C240,320,192,320,144,320C96,320,48,320,24,320L0,320Z"></path>
</svg>